<?xml version="1.0" standalone="no"?><!DOCTYPE svg PUBLIC "-//W3C//DTD SVG 1.1//EN" "http://www.w3.org/Graphics/SVG/1.1/DTD/svg11.dtd"><svg t="1496675136245" class="icon" style="" viewBox="0 0 1024 1024" version="1.1" xmlns="http://www.w3.org/2000/svg" p-id="14822" xmlns:xlink="http://www.w3.org/1999/xlink" width="200" height="200"><defs><style type="text/css"></style></defs><path d="M950.4 841.6l-121.6-140.8 0 0 0 0c-89.6 28.8-198.4 41.6-310.4 41.6-115.2 0-224-16-316.8-44.8l0 3.2-3.2 0-121.6 140.8 73.6 64 86.4-99.2c86.4 19.2 182.4 32 284.8 32 99.2 0 192-9.6 278.4-32l86.4 96L950.4 841.6z" p-id="14823" fill="#707070"></path><path d="M512 192c96 0 176 80 176 176S608 544 512 544s-176-80-176-176S416 192 512 192M512 96c-150.4 0-272 121.6-272 272S361.6 640 512 640s272-121.6 272-272S662.4 96 512 96L512 96z" p-id="14824" fill="#707070"></path></svg>