<?xml version="1.0" standalone="no"?><!DOCTYPE svg PUBLIC "-//W3C//DTD SVG 1.1//EN" "http://www.w3.org/Graphics/SVG/1.1/DTD/svg11.dtd"><svg t="1496674073664" class="icon" style="" viewBox="0 0 1024 1024" version="1.1" xmlns="http://www.w3.org/2000/svg" p-id="11202" xmlns:xlink="http://www.w3.org/1999/xlink" width="200" height="200"><defs><style type="text/css"></style></defs><path d="M256 128l512 0 256 256 0 384q0 53.00224-37.49888 90.50112t-90.50112 37.49888l-768 0q-53.00224 0-90.50112-37.49888t-37.49888-90.50112l0-384zM938.65984 768l0-298.65984-187.33056 0q-28.32384 73.99424-94.49472 122.32704t-144.83456 48.3328q-52.3264 0-101.66272-22.3232t-85.99552-61.17376-55.00928-87.16288l-183.99232 0 0 298.65984q0 17.32608 12.32896 30.0032t30.33088 12.67712l768 0q17.67424 0 30.16704-12.4928t12.4928-30.16704zM903.33184 384l-169.00096-170.65984-443.00288 0-170.65984 170.65984 220.672 0q0 42.33216 22.67136 81.67424t62.50496 64.16384 85.504 24.84224 85.504-24.84224 62.50496-64.16384 22.67136-81.67424l220.672 0z" p-id="11203" fill="#707070"></path></svg>