<?xml version="1.0" standalone="no"?><!DOCTYPE svg PUBLIC "-//W3C//DTD SVG 1.1//EN" "http://www.w3.org/Graphics/SVG/1.1/DTD/svg11.dtd"><svg t="1496759246649" class="icon" style="" viewBox="0 0 1024 1024" version="1.1" xmlns="http://www.w3.org/2000/svg" p-id="1530" xmlns:xlink="http://www.w3.org/1999/xlink" width="200" height="200"><defs><style type="text/css"></style></defs><path d="M495.049444 34.657334c66.961064-8.976442 108.545158 31.083949 154.122193 57.328683 60.649312 34.922371 130.577964 75.008344 193.47241 111.381763 41.164538 23.806195 79.272461 42.995233 95.095845 88.449471 10.136871 29.122271 6.557346 69.378114 6.557346 106.467847 0 70.644967 0 146.239666 0 222.763526 0 61.905932 0.817622 103.479793-21.313422 135.950322-21.259186 31.190373-54.736649 46.678112-86.899162 65.519226-68.1481 39.923268-125.126812 71.855538-193.471386 111.38074C599.732645 958.698738 551.627021 1004.940922 480.292346 986.315726c-30.230512-7.894807-67.176982-33.974789-96.736205-50.777477-61.313437-34.850739-123.694183-71.54343-186.91404-108.107183C149.124877 799.952224 102.911346 780.065292 86.79018 722.602555c-13.727653-48.928363-4.919033-146.102542-4.919033-206.383464 0-36.247552 0-66.922179 0-104.829534 0-66.693981-1.750877-121.091916 26.233478-155.60701 19.408025-23.935132 53.080939-38.667671 88.537476-58.966996 62.602803-35.840276 121.977076-73.614601 183.635367-108.10616 29.797653-16.669658 61.311391-40.486086 95.096868-50.776454C481.171366 36.167734 491.168044 35.178197 495.049444 34.657334zM450.780195 118.193913c-77.728292 44.950771-148.358933 83.759659-226.264257 129.399115-27.847232 16.314571-67.092048 32.746822-78.700433 63.880913-7.569396 20.303418-4.919033 55.667857-4.919033 96.640014 0 79.288834 0 131.524522 0 203.106838 0 29.190833-4.602831 77.662801 3.279696 99.915617 10.344602 29.208229 48.369637 44.528146 81.980129 63.880913 67.0153 38.587853 120.048143 71.031776 185.27368 108.107183 25.767873 14.646582 67.324338 46.182832 100.014878 47.499827 22.946618 0.925069 35.658128-10.68434 54.107315-21.293979 79.713506-45.834908 153.99735-87.088474 232.822626-132.673695 25.444509-14.71412 70.518077-34.599006 81.980129-63.880913 9.251711-23.642466 4.919033-69.093635 4.919033-98.277304 0-68.390623 0-142.996808 0-206.384487 0-30.330796 5.862521-73.769121-4.919033-99.915617-10.419304-25.26543-51.213405-44.217061-81.980129-62.2426-60.974723-35.720549-122.776278-69.63394-183.634344-104.829534-31.226189-18.058284-71.336722-54.406121-113.13264-47.50085C481.75158 96.90505 467.543997 108.49911 450.780195 118.193913z" p-id="1531" fill="#707070"></path><path d="M503.24715 260.697487c37.114293-4.88731 58.153468 15.491833 85.258803 31.120788 31.598672 18.222013 73.088622 42.451858 104.933911 60.60531 17.479093 9.963932 34.18559 19.954471 42.629913 39.311331 16.066931 36.840046 6.557346 77.142961 6.557346 119.571283 0 39.163975 4.259 100.917434-11.476379 127.761825-16.966417 28.944216-68.345598 49.52802-101.655238 68.793806-17.249873 9.975189-35.925211 20.606317-54.107315 31.120788-18.145266 10.495028-39.445384 26.190499-63.944358 24.571628-24.964578-1.650593-45.444005-14.762215-65.583694-26.207895-18.343787-10.426467-35.132148-22.544459-55.746652-34.396391-41.514509-23.871687-89.310072-39.08518-103.294574-81.898265-8.93244-27.348881-1.639337-76.55763-1.639337-109.744473 0-33.54807-2.501984-92.64605 3.278673-111.381763 11.6749-37.833677 55.438637-54.601572 96.736205-78.622662 19.286252-11.217483 37.692461-20.741393 55.746652-31.121811C460.281593 279.060717 475.795938 264.311805 503.24715 260.697487zM586.866616 357.336478c-24.515347-13.753235-50.300616-33.969673-73.782424-39.311331-0.650823-0.148379-2.664689-0.2415-3.278673 0-47.477314 18.705014-93.406366 58.880015-141.005454 81.898265 36.278251 16.350386 71.097268 37.468356 106.573247 55.69037 9.393951 4.824889 29.715789 17.963117 37.71088 18.017352 8.739035 0.059352 26.022677-12.754488 36.07052-18.017352 38.041408-19.920702 74.738192-38.172391 108.21463-57.328683C634.321418 387.457496 611.578438 371.201254 586.866616 357.336478zM344.206948 534.236444c0 25.830295-5.922896 57.767682 1.639337 73.708745 3.580548 7.546883 23.654746 15.115256 34.431184 21.292955 27.544333 15.793708 45.833885 26.478048 70.501704 40.950667 12.297071 7.213285 23.704888 16.96437 32.791847 16.379039 0-53.507658 0-107.012246 0-160.519904-46.384423-24.094768-91.902106-49.054229-139.365094-72.070432C344.206948 477.058187 344.206948 504.427534 344.206948 534.236444zM680.323125 453.976492c-45.892213 24.039509-91.868337 47.995107-137.725758 72.070432 0 54.05308 0 108.105137 0 162.158217 43.455721-23.74582 97.077989-51.52756 139.365094-81.898265C680.739611 556.537356 684.334485 495.802086 680.323125 453.976492z" p-id="1532" fill="#707070"></path></svg>