<?xml version="1.0" standalone="no"?><!DOCTYPE svg PUBLIC "-//W3C//DTD SVG 1.1//EN" "http://www.w3.org/Graphics/SVG/1.1/DTD/svg11.dtd"><svg t="1496674956898" class="icon" style="" viewBox="0 0 1024 1024" version="1.1" xmlns="http://www.w3.org/2000/svg" p-id="11904" xmlns:xlink="http://www.w3.org/1999/xlink" width="200" height="200"><defs><style type="text/css"></style></defs><path d="M949.646222 484.124444l-408.462222-410.055111c-10.951111-11.008-25.827556-17.152-41.329778-17.152l-384.142222 0c-32.227556 0-58.339556 26.140444-58.339556 58.396444l0 384.142222c0 15.502222 6.172444 30.350222 17.095111 41.301333l409.287111 409.315556c11.377778 11.377778 26.339556 17.066667 41.244444 17.066667s29.866667-5.688889 41.244444-17.066667l383.317333-383.345778c22.784-22.784 22.812444-59.733333 0.085333-82.574222zM810.040889 545.393778l-264.96 264.96c-11.121778 11.121778-29.070222 11.121778-40.163556 0l-333.852444-333.880889 0-277.361778c0-15.701333 12.714667-28.444444 28.387556-28.444444l277.447111 0 333.169778 334.506667c11.121778 11.121778 11.064889 29.098667-0.028444 40.220444z" p-id="11905" fill="#707070"></path><path d="M455.196444 369.777778c0 47.132444-38.172444 85.333333-85.248 85.333333s-85.248-38.200889-85.248-85.333333c0-47.132444 38.144-85.333333 85.248-85.333333 47.075556 0 85.248 38.200889 85.248 85.333333z" p-id="11906" fill="#707070"></path></svg>