<?xml version="1.0" standalone="no"?><!DOCTYPE svg PUBLIC "-//W3C//DTD SVG 1.1//EN" "http://www.w3.org/Graphics/SVG/1.1/DTD/svg11.dtd"><svg t="1496495448164" class="icon" style="" viewBox="0 0 1024 1024" version="1.1" xmlns="http://www.w3.org/2000/svg" p-id="973" xmlns:xlink="http://www.w3.org/1999/xlink" width="200" height="200"><defs><style type="text/css"></style></defs><path d="M318.7 230.5c-14.3-14.3-37.4-14.3-51.6 0L12.3 485.2c-0.3 0.3-0.7 0.6-1 1C4.2 493.3 0.6 502.6 0.6 512c0 9.4 3.6 18.7 10.7 25.8 0.3 0.3 0.7 0.6 1 1L267 793.5c14.3 14.3 37.4 14.3 51.6 0 14.3-14.3 14.3-37.4 0-51.6L88.8 512l229.9-229.9C332.9 267.9 333 244.8 318.7 230.5zM597.2 28.7c-19.9-3.5-38.8 9.8-42.3 29.6L397.1 953c-3.5 19.9 9.8 38.8 29.6 42.3 19.9 3.5 38.8-9.8 42.3-29.6L626.9 71C630.4 51.1 617.1 32.2 597.2 28.7zM1012.7 486.2c-0.3-0.3-0.7-0.6-1-1L757 230.5c-14.3-14.3-37.4-14.3-51.6 0-14.3 14.3-14.3 37.4 0 51.6L935.2 512 705.3 741.9c-14.3 14.3-14.3 37.4 0 51.6 14.3 14.3 37.4 14.3 51.6 0l254.7-254.7c0.3-0.3 0.7-0.6 1-1 7.1-7.1 10.7-16.5 10.7-25.8C1023.4 502.6 1019.8 493.3 1012.7 486.2z" p-id="974"></path></svg>