<?xml version="1.0" standalone="no"?><!DOCTYPE svg PUBLIC "-//W3C//DTD SVG 1.1//EN" "http://www.w3.org/Graphics/SVG/1.1/DTD/svg11.dtd"><svg t="1496672429217" class="icon" style="" viewBox="0 0 1024 1024" version="1.1" xmlns="http://www.w3.org/2000/svg" p-id="6965" xmlns:xlink="http://www.w3.org/1999/xlink" width="200" height="200"><defs><style type="text/css"></style></defs><path d="M832 1024 192 1024c-106.048 0-192-85.952-192-192L0 192c0-106.048 85.952-192 192-192l640 0c106.048 0 192 85.952 192 192l0 640C1024 938.048 938.048 1024 832 1024zM896 192c0-35.328-28.608-64-64-64L192 128C156.608 128 128 156.672 128 192l0 640c0 35.392 28.608 64 64 64l640 0c35.392 0 64-28.608 64-64L896 192zM256 640l512 0 0 128L256 768 256 640zM256 448l512 0 0 128L256 576 256 448zM256 256l512 0 0 128L256 384 256 256z" p-id="6966" fill="#707070"></path></svg>