<?xml version="1.0" standalone="no"?><!DOCTYPE svg PUBLIC "-//W3C//DTD SVG 1.1//EN" "http://www.w3.org/Graphics/SVG/1.1/DTD/svg11.dtd"><svg t="1496503306778" class="icon" style="" viewBox="0 0 1024 1024" version="1.1" xmlns="http://www.w3.org/2000/svg" p-id="4953" xmlns:xlink="http://www.w3.org/1999/xlink" width="200" height="200"><defs><style type="text/css"></style></defs><path d="M895.91788 965.140451 128.08212 965.140451c-35.33988 0-63.986313-28.653597-63.986313-63.986313L64.095807 229.297336c0-35.33988 28.646434-63.986313 63.986313-63.986313l223.952608 0c17.669428 0 31.992645 14.323217 31.992645 31.989575 0 17.673521-14.323217 31.996738-31.992645 31.996738L128.08212 229.297336l0 671.856801 767.836783 0L895.918903 229.297336l-223.952608 0c-17.670451 0-31.993668-14.323217-31.993668-31.996738 0-17.666358 14.323217-31.989575 31.993668-31.989575l223.952608 0c35.33988 0 63.986313 28.646434 63.986313 63.986313l0 671.856801C959.904193 936.486854 931.257759 965.140451 895.91788 965.140451zM694.588525 593.154321l-159.962202 159.963225 0 0-0.00307 0 0 0c-5.78782 5.79396-13.785981 9.370415-22.62223 9.370415-8.833179 0-16.83134-3.576455-22.61916-9.370415l-0.00307 0-159.966295-159.963225 45.24753-45.24446 105.347327 105.347327L480.007355 90.630137c0-17.666358 14.326287-31.989575 31.992645-31.989575 17.670451 0 31.996738 14.323217 31.996738 31.989575l0 562.626028 105.347327-105.347327L694.588525 593.154321z" p-id="4954" fill="#ffffff"></path></svg>